<?xml version="1.0" encoding="iso-8859-1"?>
<!-- Generator: Adobe Illustrator 18.0.0, SVG Export Plug-In . SVG Version: 6.00 Build 0)  -->
<!DOCTYPE svg PUBLIC "-//W3C//DTD SVG 1.1//EN" "http://www.w3.org/Graphics/SVG/1.1/DTD/svg11.dtd">
<svg version="1.1" id="Capa_1" xmlns="http://www.w3.org/2000/svg" xmlns:xlink="http://www.w3.org/1999/xlink" x="0px" y="0px"
	 viewBox="0 0 404.851 404.851" style="enable-background:new 0 0 404.851 404.851;" xml:space="preserve">
<g>
	<g>
		<path style="fill:none;" d="M202.426,39.609c-64.834,0-117.578,52.747-117.578,117.581c0,52.696,34.846,97.406,82.705,112.299
			c0.557-18.49-0.982-52.7-17.371-75.661c-2.611-3.658-2.961-8.469-0.902-12.465c2.057-3.996,6.174-6.507,10.668-6.507h84.957
			c4.494,0,8.613,2.512,10.67,6.507c2.057,3.996,1.709,8.807-0.902,12.465c-16.389,22.959-17.93,57.166-17.373,75.661
			c47.859-14.893,82.707-59.603,82.707-112.299C320.006,92.356,267.26,39.609,202.426,39.609z"/>
		<path style="fill:none;" d="M162.717,367.93c0,7.125,5.795,12.92,12.92,12.92h53.578c7.125,0,12.92-5.796,12.92-12.92v-0.5
			h-79.418V367.93z"/>
		<path style="fill:none;" d="M180.191,198.856c11.643,27.592,12.041,58.972,11.221,75.393c3.627,0.338,7.299,0.52,11.014,0.52
			c3.713,0,7.385-0.182,11.012-0.52c-0.818-16.421-0.42-47.8,11.223-75.393H180.191z"/>
		<path style="fill:#73D0F4;" d="M162.717,293.091v50.339h79.418v-50.339c-12.604,3.689-25.928,5.677-39.709,5.677
			C188.644,298.768,175.32,296.78,162.717,293.091z"/>
		<path style="fill:#3D6889;" d="M202.426,15.609c-78.066,0-141.578,63.513-141.578,141.581c0,55.164,31.717,103.055,77.869,126.41
			v84.331c0,20.358,16.563,36.92,36.92,36.92h53.578c20.357,0,36.92-16.563,36.92-36.92v-84.332
			c46.152-23.354,77.871-71.245,77.871-126.409C344.006,79.122,280.492,15.609,202.426,15.609z M213.437,274.248
			c-3.627,0.338-7.299,0.52-11.012,0.52c-3.715,0-7.387-0.182-11.014-0.52c0.82-16.421,0.422-47.801-11.221-75.393h44.469
			C213.017,226.448,212.619,257.828,213.437,274.248z M242.135,343.43h-79.418v-50.339c12.604,3.689,25.928,5.677,39.709,5.677
			c13.781,0,27.105-1.987,39.709-5.677V343.43z M242.135,367.93c0,7.125-5.795,12.92-12.92,12.92h-53.578
			c-7.125,0-12.92-5.796-12.92-12.92v-0.5h79.418V367.93z M237.299,269.488c-0.557-18.495,0.984-52.701,17.373-75.661
			c2.611-3.658,2.959-8.469,0.902-12.465c-2.057-3.996-6.176-6.507-10.67-6.507h-84.957c-4.494,0-8.611,2.512-10.668,6.507
			c-2.059,3.996-1.709,8.807,0.902,12.465c16.389,22.962,17.928,57.171,17.371,75.661c-47.859-14.893-82.705-59.603-82.705-112.299
			c0-64.834,52.744-117.581,117.578-117.581s117.58,52.747,117.58,117.581C320.006,209.886,285.158,254.596,237.299,269.488z"/>
		<path style="fill:#3D6889;" d="M47.359,51.702c2.344,2.343,5.414,3.515,8.484,3.515c3.072,0,6.142-1.172,8.486-3.516
			c4.686-4.686,4.686-12.284,0-16.97L33.111,3.515c-4.687-4.687-12.285-4.687-16.971,0c-4.685,4.687-4.685,12.284,0,16.97
			L47.359,51.702z"/>
		<path style="fill:#3D6889;" d="M349.008,55.217c3.072,0,6.143-1.172,8.486-3.515l31.215-31.216c4.688-4.687,4.688-12.284,0-16.971
			c-4.688-4.687-12.285-4.686-16.971,0l-31.215,31.216c-4.688,4.687-4.688,12.285,0,16.971
			C342.867,54.045,345.937,55.217,349.008,55.217z"/>
		<path style="fill:#3D6889;" d="M357.494,262.675c-4.686-4.687-12.283-4.688-16.971-0.001c-4.688,4.687-4.688,12.284,0,16.97
			l31.215,31.218c2.344,2.344,5.414,3.515,8.486,3.515c3.07,0,6.141-1.172,8.484-3.515c4.688-4.685,4.688-12.284,0-16.97
			L357.494,262.675z"/>
		<path style="fill:#3D6889;" d="M47.359,262.674L16.14,293.892c-4.685,4.686-4.685,12.284,0,16.971
			c2.344,2.343,5.414,3.515,8.486,3.515c3.07,0,6.143-1.171,8.484-3.515l31.219-31.218c4.686-4.687,4.686-12.284,0-16.971
			C59.644,257.987,52.045,257.987,47.359,262.674z"/>
	</g>
</g>
<g>
</g>
<g>
</g>
<g>
</g>
<g>
</g>
<g>
</g>
<g>
</g>
<g>
</g>
<g>
</g>
<g>
</g>
<g>
</g>
<g>
</g>
<g>
</g>
<g>
</g>
<g>
</g>
<g>
</g>
</svg>
